<?xml version="1.0" encoding="UTF-8"?>
<svg xmlns="http://www.w3.org/2000/svg" xmlns:xlink="http://www.w3.org/1999/xlink" width="13pt" height="14pt" viewBox="0 0 13 14" version="1.1">
<g id="surface1">
<path style=" stroke:none;fill-rule:nonzero;fill:rgb(0%,0%,0%);fill-opacity:1;" d="M 2.910156 12.25 L 0.214844 12.25 L 0.214844 4.070312 L 2.910156 4.070312 Z M 1.5625 2.957031 C 0.699219 2.957031 0 2.28125 0 1.472656 C 0 0.660156 0.699219 0 1.5625 0 C 2.421875 0 3.121094 0.660156 3.121094 1.472656 C 3.121094 2.28125 2.421875 2.957031 1.5625 2.957031 Z M 12.996094 12.25 L 10.308594 12.25 L 10.308594 8.269531 C 10.308594 7.320312 10.289062 6.101562 8.90625 6.101562 C 7.503906 6.101562 7.289062 7.132812 7.289062 8.199219 L 7.289062 12.25 L 4.597656 12.25 L 4.597656 4.070312 L 7.183594 4.070312 L 7.183594 5.1875 L 7.222656 5.1875 C 7.582031 4.542969 8.460938 3.867188 9.769531 3.867188 C 12.5 3.867188 13 5.558594 13 7.757812 L 13 12.25 Z M 12.996094 12.25 "/>
</g>
</svg>
