<?xml version="1.0" encoding="UTF-8"?>
<svg xmlns="http://www.w3.org/2000/svg" xmlns:xlink="http://www.w3.org/1999/xlink" width="17pt" height="17pt" viewBox="0 0 17 17" version="1.1">
<g id="surface1">
<path style=" stroke:none;fill-rule:nonzero;fill:rgb(0%,0%,0%);fill-opacity:1;" d="M 15.253906 5.039062 C 15.261719 5.1875 15.261719 5.339844 15.261719 5.492188 C 15.261719 10.097656 11.757812 15.402344 5.351562 15.402344 C 3.375 15.402344 1.542969 14.832031 0 13.839844 C 0.28125 13.871094 0.550781 13.882812 0.839844 13.882812 C 2.46875 13.882812 3.96875 13.332031 5.167969 12.394531 C 3.636719 12.363281 2.351562 11.359375 1.910156 9.976562 C 2.125 10.011719 2.339844 10.03125 2.566406 10.03125 C 2.878906 10.03125 3.191406 9.988281 3.484375 9.914062 C 1.886719 9.589844 0.691406 8.1875 0.691406 6.492188 L 0.691406 6.449219 C 1.152344 6.710938 1.695312 6.871094 2.265625 6.894531 C 1.328125 6.265625 0.710938 5.199219 0.710938 3.992188 C 0.710938 3.34375 0.882812 2.75 1.1875 2.234375 C 2.902344 4.347656 5.480469 5.726562 8.371094 5.878906 C 8.316406 5.621094 8.285156 5.351562 8.285156 5.082031 C 8.285156 3.160156 9.835938 1.597656 11.769531 1.597656 C 12.773438 1.597656 13.675781 2.015625 14.3125 2.695312 C 15.101562 2.546875 15.855469 2.253906 16.523438 1.855469 C 16.265625 2.664062 15.714844 3.34375 14.992188 3.777344 C 15.695312 3.699219 16.375 3.503906 17 3.234375 C 16.527344 3.925781 15.933594 4.542969 15.253906 5.039062 Z M 15.253906 5.039062 "/>
</g>
</svg>
